<svg width="16" height="16" viewBox="0 0 16 16" fill="none" xmlns="http://www.w3.org/2000/svg">
<path d="M7.53047 7.52885V4.67041H4.57047C4.4105 5.51374 4.31155 6.46739 4.28998 7.52885H7.53047Z" fill="white"/>
<path d="M7.53032 3.72803V0C6.43122 0.275101 5.38075 1.53536 4.78607 3.72803H7.53032Z" fill="white"/>
<path d="M3.3516 8.47119H0C0.0570694 9.45864 0.292954 10.4135 0.692409 11.2982H3.617C3.46314 10.4278 3.37367 9.48104 3.3516 8.47119Z" fill="white"/>
<path d="M0 7.52885H3.35063C3.37048 6.50704 3.45938 5.54946 3.61478 4.67041H0.706809C0.298714 5.564 0.0577268 6.52971 0 7.52885H0Z" fill="white"/>
<path d="M8.46967 0.00390625V3.72801H11.2058C10.9807 2.90698 10.7112 2.28924 10.4625 1.83818C9.90645 0.829775 9.21191 0.195453 8.46967 0.00390625V0.00390625Z" fill="white"/>
<path d="M7.53036 8.47119H4.29089C4.31553 9.57028 4.42034 10.5061 4.57036 11.2982H7.53039V8.47119H7.53036Z" fill="white"/>
<path d="M11.2843 1.38211C11.6551 2.05454 11.9533 2.84265 12.1759 3.72817H14.7844C14.467 3.22486 14.0913 2.75278 13.6605 2.32056C12.7877 1.44471 11.7518 0.795723 10.6237 0.401855C10.8614 0.688642 11.0823 1.01576 11.2843 1.38211V1.38211Z" fill="white"/>
<path d="M11.7092 7.52885C11.6842 6.41513 11.5769 5.4692 11.4237 4.67041H8.46967V7.52885H11.7092Z" fill="white"/>
<path d="M12.1933 12.2406C11.9704 13.1451 11.6685 13.9488 11.2909 14.6322C11.0935 14.9896 10.878 15.3092 10.6462 15.5905C11.7656 15.1958 12.7934 14.5496 13.6604 13.6796C14.1001 13.2385 14.4821 12.7556 14.8036 12.2406H12.1933Z" fill="white"/>
<path d="M3.81459 3.72807C4.0368 2.83642 4.33598 2.04344 4.70911 1.36797C4.90655 1.01057 5.12209 0.690835 5.3539 0.409546C4.23455 0.804168 3.20665 1.45043 2.33959 2.32043C1.90883 2.75265 1.53316 3.22473 1.21576 3.72804H3.81459V3.72807Z" fill="white"/>
<path d="M12.3772 4.67041C12.5345 5.54949 12.6261 6.50675 12.6485 7.52885H16C15.9422 6.52971 15.7012 5.564 15.2932 4.67041H12.3772Z" fill="white"/>
<path d="M4.71578 14.6182C4.34058 13.9378 4.03977 13.1389 3.81644 12.2406H1.19635C1.51785 12.7556 1.89987 13.2385 2.33952 13.6796C3.21237 14.5554 4.24823 15.2044 5.37632 15.5983C5.13858 15.3116 4.91776 14.9845 4.71578 14.6182Z" fill="white"/>
<path d="M8.46967 8.47119V11.2982H11.4357C11.5922 10.4626 11.689 9.51952 11.7103 8.47119H8.46967Z" fill="white"/>
<path d="M16 8.47119H12.6495C12.6299 9.48088 12.5429 10.4278 12.3909 11.2982H15.3076C15.7071 10.4134 15.943 9.45864 16 8.47119V8.47119Z" fill="white"/>
<path d="M8.46967 12.2406V16.0001C9.57411 15.7237 10.6296 14.4529 11.2227 12.2406H8.46967Z" fill="white"/>
<path d="M7.53057 15.9961V12.2406H4.78595C5.01272 13.0774 5.28593 13.7052 5.53781 14.162C6.09385 15.1703 6.78836 15.8046 7.53057 15.9961Z" fill="white"/>
</svg>
