<svg width="12" height="12" viewBox="0 0 12 12" fill="none" xmlns="http://www.w3.org/2000/svg">
<rect width="12" height="12" rx="6" fill="#17161A"/>
<g clip-path="url(#clip0_301_245)">
<path d="M9.66667 6L8.85333 5.07L8.96667 3.84L7.76333 3.56667L7.13333 2.5L6 2.98667L4.86667 2.5L4.23667 3.56333L3.03333 3.83333L3.14667 5.06667L2.33333 6L3.14667 6.93L3.03333 8.16333L4.23667 8.43667L4.86667 9.5L6 9.01L7.13333 9.49667L7.76333 8.43333L8.96667 8.16L8.85333 6.93L9.66667 6ZM5.12667 7.33667L4.33333 6.53667C4.30243 6.50583 4.27792 6.4692 4.26119 6.42887C4.24446 6.38855 4.23585 6.34532 4.23585 6.30167C4.23585 6.25801 4.24446 6.21478 4.26119 6.17446C4.27792 6.13413 4.30243 6.0975 4.33333 6.06667L4.35667 6.04333C4.48667 5.91333 4.7 5.91333 4.83 6.04333L5.36667 6.58333L7.08333 4.86333C7.21333 4.73333 7.42667 4.73333 7.55667 4.86333L7.58 4.88667C7.71 5.01667 7.71 5.22667 7.58 5.35667L5.60667 7.33667C5.47 7.46667 5.26 7.46667 5.12667 7.33667Z" fill="url(#paint0_linear_301_245)"/>
<path d="M5.12667 7.33667L4.33334 6.53667C4.30244 6.50583 4.27792 6.4692 4.26119 6.42888C4.24447 6.38856 4.23586 6.34533 4.23586 6.30167C4.23586 6.25802 4.24447 6.21479 4.26119 6.17446C4.27792 6.13414 4.30244 6.09751 4.33334 6.06667L4.35667 6.04334C4.48667 5.91334 4.7 5.91334 4.83 6.04334L5.36667 6.58334L7.08334 4.86334C7.21334 4.73334 7.42667 4.73334 7.55667 4.86334L7.58 4.88667C7.71001 5.01667 7.71001 5.22667 7.58 5.35667L5.60667 7.33667C5.47 7.46667 5.26 7.46667 5.12667 7.33667Z" fill="#F5F8FA"/>
</g>
<defs>
<linearGradient id="paint0_linear_301_245" x1="2.33333" y1="2.5" x2="9.68289" y2="2.51708" gradientUnits="userSpaceOnUse">
<stop stop-color="#FE5A5A"/>
<stop offset="1" stop-color="#F163D2"/>
</linearGradient>
<clipPath id="clip0_301_245">
<rect x="2" y="2" width="8" height="8" rx="4" fill="white"/>
</clipPath>
</defs>
</svg>
